<svg width="200" height="80" viewBox="0 0 200 80" fill="none" xmlns="http://www.w3.org/2000/svg">
<path d="M14.668 45.0395V46.6206C14.668 50.2964 13.9848 55 7.19334 55C2.17006 55 0 52.3913 0 47.0158V32.747C0 27.6877 2.57192 25 7.31389 25C13.5829 25 14.5876 29.0316 14.5876 32.8656V34.6838H8.84097V32.1937C8.84097 30.5731 8.4793 29.7826 7.31389 29.7826C6.14849 29.7826 5.74663 30.5336 5.74663 32.1937V47.6087C5.74663 49.1502 6.02794 50.2174 7.31389 50.2174C8.55967 50.2174 8.92134 49.3083 8.92134 47.4901V45.0791H14.668V45.0395Z" fill="#1D1D1B"/>
<path d="M23.653 47.6974L22.9297 54.6144H17.1027L21.2821 25.4839H29.7613L34.0613 54.6144H28.1539L27.3502 47.6974H23.653ZM26.8278 42.7567C26.4259 39.0413 25.8231 33.3496 25.5418 30.5828H25.3007C25.1801 32.5986 24.497 39.1598 24.0951 42.7567H26.8278Z" fill="#1D1D1B"/>
<path d="M42.2091 41.9662V54.6144H36.5429V25.4839H43.9371C48.8801 25.4839 51.3716 27.6183 51.3716 32.7171V33.7448C51.3716 37.895 49.6838 39.1203 48.3978 39.7132C50.2464 40.5828 51.0903 41.9266 51.0903 45.9978C51.0903 48.8041 51.0501 53.0729 51.2912 54.5749H45.7857C45.424 53.2705 45.4642 49.476 45.4642 45.7606C45.4642 42.48 45.1025 41.9266 42.9325 41.9266H42.2091V41.9662ZM42.2493 37.5393H42.9727C44.8614 37.5393 45.6652 36.9464 45.6652 34.2191V32.7962C45.6652 30.8594 45.2633 29.8713 43.1736 29.8713H42.2895V37.5393H42.2493Z" fill="#1D1D1B"/>
<path d="M53.9319 25.4839H60.9244C67.0327 25.4839 69.1224 28.2112 69.1224 34.2586V45.2073C69.1224 50.227 68.0374 54.6144 61.2861 54.6144H53.8918V25.4839H53.9319ZM59.6384 50.1085H60.7636C63.0141 50.1085 63.3757 48.6855 63.3757 46.393V33.3496C63.3757 31.2152 62.8935 30.0294 60.7234 30.0294H59.6384V50.1085Z" fill="#1D1D1B"/>
<path d="M77.3168 25.4839H71.6103V54.6144H77.3168V25.4839Z" fill="#1D1D1B"/>
<path d="M95.2449 33.2213V46.7391C95.2449 52.5099 92.4721 55 87.288 55C82.3853 55 79.8536 52.4704 79.8536 46.8182V33.0632C79.8536 27.4506 82.9881 25 87.5693 25C92.1506 25 95.2449 27.4111 95.2449 33.2213ZM85.6404 32.5889V47.4901C85.6404 49.3083 86.2834 50.2174 87.5292 50.2174C88.8553 50.2174 89.4581 49.3478 89.4581 47.4506V32.5494C89.4581 30.7312 88.9357 29.7826 87.5292 29.7826C86.2834 29.8221 85.6404 30.6522 85.6404 32.5889Z" fill="#1D1D1B"/>
<path d="M104.442 25.363H108.943C113.162 25.363 114.729 27.774 114.729 31.4894V32.9519C114.729 37.023 113.604 38.3274 111.997 38.8807C113.805 39.355 115.372 40.9756 115.372 44.7305V46.8649C115.372 52.0428 113.805 54.5329 108.822 54.5329H104.402V25.363H104.442ZM109.063 38.0112C111.796 38.0112 112.599 36.7464 112.599 33.0309V31.608C112.599 28.8017 111.514 27.2602 108.742 27.2602H106.572V38.0112H109.063ZM106.572 52.6357H108.742C112.318 52.6357 113.202 50.8965 113.202 46.8254V44.7701C113.202 41.3709 111.796 39.9084 108.983 39.9084H106.572V52.6357Z" fill="#1D1D1B"/>
<path d="M121.914 44.1772L120.266 54.4934H118.056L122.999 25.363H126.133L131.276 54.5329H128.986L127.218 44.1772H121.914ZM126.896 42.2009C125.611 34.7701 124.807 29.6317 124.566 27.2602H124.445C124.365 29.3946 123.159 36.193 122.235 42.2009H126.896Z" fill="#1D1D1B"/>
<path d="M133.927 25.4839H136.137V52.6777H143.571L143.25 54.6144H133.927V25.4839Z" fill="#1D1D1B"/>
<path d="M150.088 44.1772L148.4 54.5329H146.23L151.132 25.363H154.267L159.41 54.5329H157.12L155.352 44.1772H150.088ZM155.07 42.2009C153.785 34.7701 152.981 29.6317 152.74 27.2602H152.619C152.539 29.3946 151.333 36.193 150.409 42.2009H155.07Z" fill="#1D1D1B"/>
<path d="M162.102 54.4935V25.3631H164.794C166.682 31.6477 171.223 47.537 171.826 50.5014H171.906C171.746 46.3512 171.665 42.2405 171.665 37.537V25.3631H173.795V54.533H171.143C169.134 47.6951 164.673 31.6081 163.91 28.5251H163.87C164.071 32.0429 164.191 37.1812 164.191 42.4382V54.533H162.102V54.4935Z" fill="#1D1D1B"/>
<path d="M187.587 46.4625V47.332C187.587 51.2846 186.824 54.9209 182.082 54.9209C177.18 54.9209 176.497 51.2055 176.497 47.0158V32.0751C176.497 27.2925 178.506 25 182.082 25C186.663 25 187.426 28.3597 187.426 32.0356V33.0632H185.176V31.996C185.176 29.4269 184.855 26.9368 182.002 26.9368C179.309 26.9368 178.707 29.1107 178.707 32.1146V47.0553C178.707 50.6917 179.55 52.9051 182.122 52.9051C184.895 52.9051 185.297 50.4545 185.297 47.332V46.3834H187.587V46.4625Z" fill="#1D1D1B"/>
<path d="M199.196 39.9504H192.446V52.6777H200L199.679 54.6145H190.276V25.484H199.558V27.4603H192.446V38.0137H199.196V39.9504Z" fill="#1D1D1B"/>
</svg>
